<?xml version="1.0" encoding="UTF-8"?>
<!DOCTYPE svg PUBLIC "-//W3C//DTD SVG 1.1//EN" "http://www.w3.org/Graphics/SVG/1.1/DTD/svg11.dtd">
<!-- Creator: CorelDRAW X5 -->
<svg xmlns="http://www.w3.org/2000/svg" xml:space="preserve" width="30px" height="30px" style="shape-rendering:geometricPrecision; text-rendering:geometricPrecision; image-rendering:optimizeQuality; fill-rule:evenodd; clip-rule:evenodd"
viewBox="0 0 3000 3000"
 xmlns:xlink="http://www.w3.org/1999/xlink">
 <defs>
  <style type="text/css">
   <![CDATA[
    .fil0 {fill:#FEFEFE}
   ]]>
  </style>
 </defs>
 <g id="Слой_x0020_1">
  <metadata id="CorelCorpID_0Corel-Layer"/>
  <path class="fil0" d="M2826 2243c78,75 127,181 127,299 0,229 -186,415 -415,415 -131,0 -247,-60 -323,-154l-718 -718 -734 734 -2 -2c-76,84 -186,137 -308,137 -229,0 -415,-186 -415,-415 0,-134 64,-254 163,-330l710 -710 -735 -735 2 -2c-84,-76 -137,-186 -137,-308 0,-229 186,-415 415,-415 134,0 254,64 330,163l711 711 744 -744 0 0c75,-78 181,-127 299,-127 229,0 415,186 415,415 0,131 -60,247 -154,323l-719 719 743 743 0 0z"/>
 </g>
</svg>
